#!OML:ASF F:\VICON\USERDATA\INSTALL\rory3\rory3.ASF
:FULLY-SPECIFIED
:DEGREES
411
root 2.09041 16.6434 14.6043 26.5323 3.86613 1.53401
lowerback -21.6013 -0.146699 -2.55448
upperback -6.62679 0.365835 0.0793008
thorax 4.82159 0.193774 1.63454
lowerneck -13.9095 -1.22519 0.150315
upperneck 36.9769 -1.96245 0.306307
head 15.2626 -0.740923 -0.219036
rclavicle 9.85227e-015 -5.96354e-015
rhumerus -46.5059 22.9308 -95.0841
rradius 26.4548
rwrist -8.61622
rhand 18.1303 7.68822
rfingers 7.12502
rthumb 42.7895 -16.6317
lclavicle 9.85227e-015 -5.96354e-015
lhumerus -57.0938 -20.1532 95.0873
lradius 36.5536
lwrist 13.6894
lhand 29.1825 21.946
lfingers 7.12502
lthumb 52.9705 41.4571
rfemur -46.5723 2.51428 31.6492
rtibia 39.5949
rfoot -44.726 -29.7514
rtoes 34.6852
lfemur -18.8878 9.1989 -28.3015
ltibia 42.9502
lfoot 17.5106 34.2909
ltoes 33.724
412
root 2.10479 16.6427 14.6331 26.4664 3.92933 1.40746
lowerback -21.6983 -0.115684 -2.26727
upperback -6.58328 0.34932 0.0665913
thorax 4.92216 0.183439 1.45389
lowerneck -13.8336 -1.15988 0.186753
upperneck 37.0111 -1.88366 0.3297
head 15.2612 -0.699371 -0.20197
rclavicle -6.80837e-015 -2.5842e-015
rhumerus -46.6215 23.4156 -95.3485
rradius 26.6927
rwrist -9.01189
rhand 18.1861 7.75366
rfingers 7.12502
rthumb 42.8417 -16.548
lclavicle -6.80837e-015 -2.5842e-015
lhumerus -57.2379 -20.572 95.3359
lradius 36.8582
lwrist 13.6292
lhand 29.7814 22.2552
lfingers 7.12502
lthumb 53.5103 41.419
rfemur -46.3953 2.11326 31.9242
rtibia 39.634
rfoot -44.8235 -29.289
rtoes 34.6686
lfemur -18.6627 9.04914 -28.1593
ltibia 42.8613
lfoot 16.2625 34.8485
ltoes 35.088
413
root 2.10175 16.6317 14.6506 26.4233 3.41099 1.73861
lowerback -21.5742 -0.119045 -2.83023
upperback -6.60786 0.464873 -0.025841
thorax 4.82131 0.241358 1.70346
lowerneck -13.8032 -1.1298 0.0758597
upperneck 37.0917 -1.84061 0.423802
head 15.2963 -0.683384 -0.135409
rclavicle -2.0245e-014 5.56597e-015
rhumerus -46.8111 23.8639 -95.5369
rradius 27.0785
rwrist -9.11341
rhand 18.4166 7.90504
rfingers 7.12502
rthumb 43.0573 -16.3206
lclavicle -2.0245e-014 5.56597e-015
lhumerus -57.4541 -21.0338 95.7462
lradius 37.0653
lwrist 13.7913
lhand 29.9895 22.3576
lfingers 7.12502
lthumb 53.6975 41.3981
rfemur -46.2933 3.14072 31.078
rtibia 39.673
rfoot -45.3497 -29.6544
rtoes 34.7977
lfemur -18.498 9.2253 -28.6792
ltibia 42.7868
lfoot 12.1086 36.454
ltoes 39.4237
414
root 2.10586 16.6293 14.67 26.4022 3.212 1.6633
lowerback -21.3739 -0.0599644 -2.83856
upperback -6.7507 0.532647 0.00642348
thorax 4.56038 0.280466 1.75677
lowerneck -13.5719 -1.11815 0.0371445
upperneck 37.2177 -1.78036 0.345423
head 15.3022 -0.674048 -0.150104
rclavicle 1.81826e-014 -1.19271e-014
rhumerus -47.0268 24.242 -95.6648
rradius 27.3487
rwrist -9.10149
rhand 18.7173 7.93585
rfingers 7.12502
rthumb 43.3384 -16.1894
lclavicle 1.81826e-014 -1.19271e-014
lhumerus -57.9636 -21.3918 96.2516
lradius 37.4245
lwrist 13.8514
lhand 30.1029 22.3713
lfingers 7.12502
lthumb 53.7994 41.344
rfemur -46.2013 3.56445 30.9609
rtibia 39.6547
rfoot -45.1985 -30.0998
rtoes 34.4608
lfemur -18.4936 9.43642 -28.6805
ltibia 42.774
lfoot 12.1056 36.6233
ltoes 39.0039
415
root 2.11688 16.6365 14.7001 26.3765 3.31938 1.38884
lowerback -21.5431 0.0267492 -2.45255
upperback -6.68321 0.567997 0.060943
thorax 4.72305 0.294154 1.60627
lowerneck -13.4953 -1.13272 0.0695149
upperneck 37.1554 -1.77591 0.255799
head 15.2517 -0.680552 -0.192067
rclavicle 1.43746e-014 7.95139e-016
rhumerus -46.9167 24.6104 -95.662
rradius 27.6833
rwrist -9.37231
rhand 19.3403 7.43357
rfingers 7.12502
rthumb 43.9201 -16.4791
lclavicle 1.43746e-014 7.95139e-016
lhumerus -58.0279 -21.7622 96.5204
lradius 37.5119
lwrist 13.6815
lhand 30.2564 22.1785
lfingers 7.12502
lthumb 53.9373 41.0588
rfemur -46.0404 3.51411 31.2604
rtibia 39.6109
rfoot -45.1327 -30.2305
rtoes 34.1753
lfemur -18.4843 9.51783 -28.3566
ltibia 42.7985
lfoot 14.8305 35.9004
ltoes 35.3609
416
root 2.12509 16.6373 14.7342 26.3865 3.28389 1.27224
lowerback -22.2554 0.0707856 -2.32253
upperback -6.24964 0.617972 0.106636
thorax 5.55694 0.302659 1.60526
lowerneck -13.9445 -1.14492 -0.0129065
upperneck 37.0953 -1.78882 0.303186
head 15.3306 -0.689812 -0.162992
rclavicle -8.69683e-017 1.0138e-014
rhumerus -46.2778 25.3458 -95.5561
rradius 28.0026
rwrist -10.0416
rhand 19.8724 6.8487
rfingers 7.12502
rthumb 44.4162 -16.8772
lclavicle -8.69683e-017 1.0138e-014
lhumerus -57.4441 -22.279 96.7087
lradius 37.5046
lwrist 13.5109
lhand 30.2223 21.8174
lfingers 7.12502
lthumb 53.9067 40.7183
rfemur -45.8506 3.59073 31.3416
rtibia 39.5345
rfoot -45.3859 -30.0523
rtoes 34.4238
lfemur -18.4594 9.70964 -28.2557
ltibia 42.8732
lfoot 13.9088 36.5202
ltoes 35.8111
417
root 2.13505 16.6374 14.7653 26.4276 3.30105 1.18301
lowerback -22.3177 0.0666843 -2.16559
upperback -6.36526 0.574874 0.154348
thorax 5.46645 0.284574 1.55559
lowerneck -13.816 -1.1173 -0.224403
upperneck 37.4097 -1.78074 0.553118
head 15.4616 -0.679776 -0.0177853
rclavicle 1.38839e-014 -3.37934e-015
rhumerus -46.6593 26.033 -95.9355
rradius 28.2716
rwrist -10.7385
rhand 20.1123 6.70303
rfingers 7.12502
rthumb 44.6396 -16.9371
lclavicle 1.38839e-014 -3.37934e-015
lhumerus -57.848 -22.6089 97.2306
lradius 37.7642
lwrist 13.5624
lhand 30.1962 21.6871
lfingers 7.12502
lthumb 53.8833 40.6037
rfemur -45.7217 3.6322 31.4006
rtibia 39.5154
rfoot -45.7316 -29.8195
rtoes 34.6681
lfemur -18.4961 9.93664 -28.1755
ltibia 42.9708
lfoot 10.8275 37.882
ltoes 38.7639
418
root 2.1469 16.6399 14.7889 26.4527 3.35148 1.14429
lowerback -22.0637 0.0959615 -2.00355
upperback -6.62751 0.5699 0.153355
thorax 5.05432 0.290158 1.45598
lowerneck -13.5264 -1.12039 -0.384809
upperneck 37.6459 -1.81892 0.764029
head 15.5153 -0.688665 0.0961849
rclavicle -8.44835e-015 7.15625e-015
rhumerus -47.3114 26.3749 -96.2791
rradius 28.6627
rwrist -11.1353
rhand 20.2144 6.57799
rfingers 7.12502
rthumb 44.7347 -17.0253
lclavicle -8.44835e-015 7.15625e-015
lhumerus -58.5785 -23.0993 97.8979
lradius 38.2396
lwrist 13.7203
lhand 30.3023 21.8864
lfingers 7.12502
lthumb 53.9785 40.7389
rfemur -45.6865 3.3394 31.5364
rtibia 39.5592
rfoot -45.5229 -29.9028
rtoes 34.1553
lfemur -18.5496 10.1659 -28.1684
ltibia 43.1122
lfoot 7.92909 38.6869
ltoes 40.6195
419
root 2.15338 16.6356 14.8046 26.4318 3.2427 1.25822
lowerback -21.6667 0.094147 -2.10321
upperback -6.85228 0.578424 0.14224
thorax 4.60664 0.301962 1.49704
lowerneck -13.2538 -1.10057 -0.39105
upperneck 37.6742 -1.75762 0.688659
head 15.4625 -0.675104 0.0773343
rclavicle 6.65307e-015 1.25234e-014
rhumerus -47.7795 26.7426 -96.4742
rradius 29.155
rwrist -11.2391
rhand 20.5246 6.22792
rfingers 7.12502
rthumb 45.0234 -17.2624
lclavicle 6.65307e-015 1.25234e-014
lhumerus -59.1755 -23.3657 98.4123
lradius 38.6202
lwrist 13.6084
lhand 30.3479 21.815
lfingers 7.12502
lthumb 54.0195 40.6399
rfemur -45.6933 3.5991 31.2533
rtibia 39.6726
rfoot -45.6976 -30.1375
rtoes 34.0984
lfemur -18.5698 10.4673 -28.3593
ltibia 43.2871
lfoot 2.6069 39.5664
ltoes 43.8579
420
root 2.15949 16.6333 14.8243 26.3805 3.1274 1.33144
lowerback -21.4194 0.133158 -2.16297
upperback -6.97219 0.637589 0.0959803
thorax 4.34817 0.335348 1.49239
lowerneck -13.2178 -1.07813 -0.249377
upperneck 37.7862 -1.70759 0.53341
head 15.5055 -0.654267 -0.00544125
rclavicle -8.11911e-015 9.54166e-015
rhumerus -48.0413 27.1557 -96.661
rradius 29.5896
rwrist -11.5328
rhand 21.0866 6.02773
rfingers 7.12502
rthumb 45.5459 -17.2535
lclavicle -8.11911e-015 9.54166e-015
lhumerus -59.6004 -23.7857 98.8474
lradius 38.8962
lwrist 13.4789
lhand 30.5815 21.8145
lfingers 7.12502
lthumb 54.229 40.4966
rfemur -45.6518 3.86113 31.0167
rtibia 39.8272
rfoot -45.9056 -30.2519
rtoes 34.2784
lfemur -18.6726 10.7818 -28.4879
ltibia 43.5224
lfoot -0.0187518 40.2509
ltoes 44.5898
421
root 2.16932 16.6347 14.852 26.3471 3.03569 1.52198
lowerback -21.4666 0.12974 -2.27215
upperback -6.95801 0.661677 0.0162725
thorax 4.38603 0.346367 1.47572
lowerneck -13.269 -1.03854 -0.111975
upperneck 37.8265 -1.62491 0.365766
head 15.5336 -0.622356 -0.0880378
rclavicle 2.75814e-015 -5.1684e-015
rhumerus -48.1526 27.6329 -96.861
rradius 29.9727
rwrist -12.1415
rhand 21.4936 5.78959
rfingers 7.12502
rthumb 45.9239 -17.3366
lclavicle 2.75814e-015 -5.1684e-015
lhumerus -59.7357 -24.1734 99.1129
lradius 39.1802
lwrist 13.0155
lhand 31.4992 21.9145
lfingers 7.12502
lthumb 55.0495 40.0173
rfemur -45.643 3.65203 30.8427
rtibia 40.0511
rfoot -45.9314 -30.2217
rtoes 33.9966
lfemur -18.8195 11.0329 -28.7569
ltibia 43.7859
lfoot 1.74812 40.7355
ltoes 42.2168
422
root 2.17637 16.6299 14.877 26.3343 3.00123 1.67259
lowerback -21.7908 0.12984 -2.38214
upperback -6.70869 0.700277 -0.0462309
thorax 4.81892 0.356907 1.48673
lowerneck -13.4679 -1.05864 -0.0818523
upperneck 37.6699 -1.64284 0.313088
head 15.502 -0.633184 -0.119888
rclavicle -7.04443e-015 2.98177e-015
rhumerus -47.8149 27.8727 -96.7265
rradius 30.2969
rwrist -12.3472
rhand 21.5299 6.08605
rfingers 7.12502
rthumb 45.9576 -17.0261
lclavicle -7.04443e-015 2.98177e-015
lhumerus -59.3528 -24.5154 98.9911
lradius 39.4721
lwrist 12.1635
lhand 32.6104 22.0759
lfingers 7.12502
lthumb 56.0373 39.4367
rfemur -45.6686 3.55576 30.6844
rtibia 40.2812
rfoot -46.3098 -29.9375
rtoes 34.4197
lfemur -18.9607 11.3554 -28.9395
ltibia 44.1347
lfoot -1.64464 40.783
ltoes 43.6228
423
root 2.17758 16.621 14.8833 26.3692 2.9323 1.9259
lowerback -21.8002 0.0588668 -2.69514
upperback -6.61498 0.678012 -0.0817766
thorax 4.92168 0.343567 1.62221
lowerneck -13.4976 -1.10299 -0.142002
upperneck 37.5564 -1.68686 0.301953
head 15.4532 -0.662857 -0.121254
rclavicle 3.75206e-015 -6.95746e-015
rhumerus -47.8402 28.5184 -96.8779
rradius 30.8267
rwrist -12.5775
rhand 21.4234 6.44897
rfingers 7.12502
rthumb 45.8587 -16.7042
lclavicle 3.75206e-015 -6.95746e-015
lhumerus -59.2626 -24.819 99.1112
lradius 39.817
lwrist 11.8036
lhand 32.9065 21.9297
lfingers 7.12502
lthumb 56.2993 39.0849
rfemur -45.8831 3.86438 30.2727
rtibia 40.5361
rfoot -46.6086 -30.3492
rtoes 34.4494
lfemur -19.2445 11.7174 -29.2325
ltibia 44.5405
lfoot -6.24464 40.3459
ltoes 46.2496
424
root 2.18303 16.6127 14.8889 26.3466 3.0018 1.92203
lowerback -21.4938 0.0300121 -2.69364
upperback -6.75736 0.625355 -0.0302253
thorax 4.61261 0.324348 1.65894
lowerneck -13.3217 -1.14636 -0.208353
upperneck 37.6366 -1.73423 0.30402
head 15.452 -0.692155 -0.11537
rclavicle -4.9634e-015 4.57205e-015
rhumerus -48.3091 29.0196 -97.1752
rradius 31.3684
rwrist -12.7441
rhand 21.5314 6.55214
rfingers 7.12502
rthumb 45.9589 -16.5595
lclavicle -4.9634e-015 4.57205e-015
lhumerus -59.695 -25.1911 99.6822
lradius 40.0821
lwrist 12.0052
lhand 32.4828 21.8255
lfingers 7.12502
lthumb 55.9241 39.274
rfemur -45.9863 3.94417 30.2475
rtibia 40.7414
rfoot -46.4474 -30.858
rtoes 34.0751
lfemur -19.6035 11.9416 -29.2111
ltibia 45.0718
lfoot -6.85494 40.5267
ltoes 46.2045
